<?xml version="1.0" encoding="UTF-8"?>
<svg xmlns="http://www.w3.org/2000/svg" id="a" width="865.76" height="682.89" viewBox="0 0 865.76 682.89">
  <path d="M591.77,516.99s-10.45,2.43-7.9,36.43c0,0-5.95,12.05,3.73,10.64l115.05-1.33s8.59-9.49-13.57-22.15c0,0-14.17-11.4-42.49-10.24,0,0-13.87-1.2-17.27-7.82l-37.55-5.53Z" fill="#f1b2c0" stroke="#002346" stroke-miterlimit="10"></path>
  <path d="M647.16,496.76c-1.99-1.26-4.58-1.04-6.33,.53-6.09,5.42-18.44,18-11.51,25.23,0,0,3.11,6.91,17.27,7.82,0,0,23.6-1.79,42.49,10.24,0,0,21.24,11,13.57,22.15l42.48,1.44s4.72-10.84-26-23.59c.04,0-54.89-33.03-71.97-43.82Z" fill="#242424" stroke="#002346" stroke-miterlimit="10"></path>
  <path d="M589.26,565.56l-85.32,.11,6.5-79,56.37,11.37,26.8,5.75-4.35,61.77Z" fill="#394260" stroke="#002346" stroke-miterlimit="10"></path>
  <path d="M489.83,365.87l-18.14,25.65,12.1,13.88,12-24.06s-4.09-4.7-5.96-15.47Z" fill="#f1b2c0" stroke="#002346" stroke-miterlimit="10"></path>
  <path d="M429.56,558.96l36.5-15.93,14.35-59.65-14.35-26.94c-16.61,8.14-31.89,18.74-45.33,31.45-43.54,39.94-7.31,64.81-7.31,64.81,3.74,2.55,9.39,4.61,16.14,6.26" fill="#394260" stroke="#002346" stroke-miterlimit="10"></path>
  <rect x="35.44" y="68.67" width="437" height="289" fill="#fff" stroke="#002346" stroke-miterlimit="10"></rect>
  <rect x="35.44" y="68.67" width="437" height="43" fill="#242424" stroke="#002346" stroke-miterlimit="10"></rect>
  <rect x="324.16" y="157.6" width="114.9" height="185.78" rx="8.79" ry="8.79" fill="#e5e6e7" stroke="#002346" stroke-miterlimit="10"></rect>
  <rect x="196.35" y="157.6" width="114.9" height="185.78" rx="8.79" ry="8.79" fill="#e5e6e7" stroke="#002346" stroke-miterlimit="10"></rect>
  <rect x="67.45" y="157.6" width="114.9" height="185.78" rx="8.79" ry="8.79" fill="#e5e6e7" stroke="#002346" stroke-miterlimit="10"></rect>
  <rect x="302.55" y="405.4" width="91.66" height="98.42" rx="22.91" ry="22.91" fill="#394260" stroke="#002346" stroke-miterlimit="10"></rect>
  <path d="M325.47,503.83h-22.92c-12.65,0-22.91-10.27-22.91-22.92v-52.59c0-12.65,10.26-22.91,22.91-22.92h22.92c-12.66,0-22.92,10.26-22.92,22.92h0v52.59c0,12.66,10.26,22.92,22.92,22.92h0Z" fill="#fff" stroke="#002346" stroke-miterlimit="10"></path>
  <path d="M260.61,503.83h89.79c17.05,0,30.87,13.82,30.87,30.87h0c0,17.05-13.82,30.87-30.87,30.87h-89.79c-17.05,0-30.87-13.82-30.87-30.87h0c0-17.05,13.82-30.87,30.87-30.87Z" fill="#e6e7e8" stroke="#002346" stroke-miterlimit="10"></path>
  <path d="M718.65,345.83c7.94,7.26,21.42,29.52,27.51,39.94,1.97,3.37,1.19,7.68-1.83,10.15-23.5,19.32-65.63,22.23-65.63,22.23,4.3,16.29,15.54,41.59,19.51,50.3,1.29,2.78,1.95,5.82,1.91,8.89-.1,5-1.91,6.92-3.57,7.63-1.28,.54-2.75,.32-3.83-.55-13.23-10.72-35-12.9-35-12.9l-161-88.38c-6.41-4.66-7.11-19.2-7.19-22.32,0-.37,.13-.73,.39-1,51.53-54.6,91.91-60.56,91.91-60.56v5.33l13.82,6,20.68-13.18-.39-2.21c58-8.03,102.71,50.63,102.71,50.63Z" fill="#242424" stroke="#002346" stroke-miterlimit="10"></path>
  <path d="M683.08,417.72s40.32,82.62,76.37,120.08c0,0,7.11,5.22,4.27,18.5l-3,14.25c-.19,.92,.26,1.86,1.11,2.28,2.87,1.42,9.53,2.73,14.25-11.79,0,0,1.42-5.69,10.43-.47,0,0,18,16.68,48.38,13.09,0,0,17.07-.76,8.54-10.24l-35.1-33.68s-10.43-8.06-24.19-38.89c0,0-35.86-79.64-44.73-91.28-.03,0-18.88,14.26-56.33,18.15Z" fill="#f1b2c0" stroke="#002346" stroke-miterlimit="10"></path>
  <path d="M466.06,456.44s-18.47-.15-40.1-53.85l-12.09-2.84c-4.94-1.16-9.08-4.56-11.09-9.23-1.56-3.62-2.94-8.79-3.51-16.15,0,0-12.39,8.49-15.52,2.23,0,0-5.36-3.58,13.42-14.76,0,0,26.09-16.87,41.88-3.74s44.73,47.29,44.73,47.29c-6.79,16.7-12.71,33.73-17.73,51.04Z" fill="#f1b2c0" stroke="#002346" stroke-miterlimit="10"></path>
  <path d="M578.51,284.94s2.29,6.87,3.27,19.64c0,0-22.3,19.03-8.52,25.92,1.45,.73,3.05,1.12,4.67,1.25,6.47,.54,25.52-.15,48.87-21.87,1.85-1.67,2.76-4.14,2.44-6.61-.49-3.17-3.19-6.57-12.92-5.86l-7-22.94-14.32-14.23-3.84,1.61-12.65,23.09Z" fill="#f1b2c0" stroke="#002346" stroke-miterlimit="10"></path>
  <path d="M517.33,514.53c-4.39,8.23-7.21,21.57-7.21,21.57-19.21,26.33-54.24,43.72-54.24,43.72-40.05,14.81-38.4-7.68-38.4-7.68l30.71-33.5c9.87-8.23,14.81-42.25,14.81-42.25,35.12-2.16,54.33,18.14,54.33,18.14Z" fill="#f1b2c0" stroke="#002346" stroke-miterlimit="10"></path>
  <path d="M494.75,576.23c-8.29,3.51-15.65,8.91-21.5,15.76-3.21,3.82-6.87,7.23-10.92,10.15-34.64,24.67-63.84,3.9-63.84,3.9-12.83-10.18,18.94-33.9,18.94-33.9,0,0-1.65,22.49,38.4,7.68,0,0,35-17.39,54.24-43.72,19.16,33.81-15.32,40.13-15.32,40.13Z" fill="#242424" stroke="#002346" stroke-miterlimit="10"></path>
  <path d="M271.87,503.83h89.79c17.05,0,30.87,13.82,30.87,30.87h0c0,17.05-13.82,30.87-30.87,30.87h-89.79c-17.05,0-30.87-13.82-30.87-30.87h0c0-17.05,13.82-30.87,30.87-30.87Z" fill="#fff" stroke="#002346" stroke-miterlimit="10"></path>
  <path d="M260.46,398.51c.49,3.62,3.37,6.46,7,6.88h121.4s-5.91-1.17-7.17-6.88h-121.23Z" fill="#e6e7e8" stroke="#002346" stroke-miterlimit="10"></path>
  <path d="M440.33,398.51h-58.6s.15,4.72,7.17,6.88h44.55s4.13,.68,6.88-6.88Z" fill="#fff" stroke="#002346" stroke-miterlimit="10"></path>
  <g>
    <circle cx="57.74" cy="91.67" r="4.79" fill="#fff" stroke="#002346" stroke-miterlimit="10"></circle>
    <circle cx="73.91" cy="91.67" r="4.79" fill="#fff" stroke="#002346" stroke-miterlimit="10"></circle>
    <circle cx="90.07" cy="91.67" r="4.79" fill="#fff" stroke="#002346" stroke-miterlimit="10"></circle>
  </g>
  <path d="M296.2,179.82c-.21-.2-.42-.41-.64-.6l-2.08-1.84c-.55-.48-1.11-1-1.62-1.48-.4-.39-.73-.84-1-1.33-.22-.44-.38-.91-.45-1.4-.06-.39-.08-.79-.06-1.18,.03-1.23,.83-2.31,2-2.7,1.15-.42,2.44-.11,3.28,.78,.22,.21,.4,.45,.56,.71v0c.31-.5,.73-.93,1.24-1.23,1.21-.7,2.75-.51,3.74,.48,.44,.45,.72,1.03,.8,1.65,.04,.33,.04,.67,0,1-.02,.4-.08,.8-.2,1.19-.17,.56-.46,1.09-.84,1.54-.39,.47-.82,.91-1.29,1.31-.69,.61-1.38,1.2-2.07,1.82-.47,.41-.93,.84-1.4,1.27l.03,.02Z" fill="#394260" stroke="#002346" stroke-miterlimit="10"></path>
  <path d="M166.97,179.82l-.64-.6-2.09-1.84c-.55-.48-1.1-1-1.61-1.48-.4-.39-.74-.84-1-1.33-.23-.44-.37-.91-.44-1.4-.06-.39-.08-.79-.07-1.18,.04-1.23,.83-2.31,2-2.7,1.15-.42,2.45-.11,3.29,.78,.21,.21,.4,.45,.55,.71v0c.3-.51,.73-.93,1.24-1.23,1.21-.71,2.74-.51,3.73,.48,.44,.45,.72,1.03,.81,1.65,.04,.33,.04,.67,0,1-.02,.4-.09,.8-.2,1.19-.17,.56-.46,1.09-.84,1.54-.39,.47-.83,.91-1.29,1.31-.69,.61-1.39,1.2-2.08,1.82-.47,.41-.93,.84-1.39,1.27l.03,.02Z" fill="#394260" stroke="#002346" stroke-miterlimit="10"></path>
  <path d="M425.96,179.82c-.21-.2-.42-.41-.64-.6l-2.08-1.84c-.55-.48-1.11-1-1.62-1.48-.4-.39-.73-.84-1-1.33-.23-.44-.37-.91-.44-1.4-.06-.39-.09-.79-.07-1.18,.03-1.23,.83-2.31,2-2.7,1.15-.42,2.44-.11,3.28,.78,.22,.21,.4,.45,.56,.71v.05l.05-.06c.3-.51,.73-.93,1.24-1.23,1.21-.7,2.74-.51,3.73,.48,.44,.45,.72,1.03,.81,1.65,.04,.33,.04,.67,0,1-.03,.4-.09,.8-.2,1.19-.18,.56-.46,1.09-.84,1.54-.4,.47-.83,.91-1.29,1.31-.69,.61-1.39,1.2-2.08,1.82-.47,.41-.93,.84-1.39,1.27l-.02,.02Z" fill="#394260" stroke="#002346" stroke-miterlimit="10"></path>
  <path d="M143.48,312.18h18.22c4.08,0,7.38,3.3,7.38,7.38h0c0,4.08-3.3,7.38-7.38,7.38h-18.22c-4.08,0-7.38-3.3-7.38-7.38h0c0-4.08,3.3-7.38,7.38-7.38Z" fill="#242424" stroke="#002346" stroke-miterlimit="10"></path>
  <rect x="546.94" y="213.17" width="46" height="76" rx="23" ry="23" fill="#f1b2c0" stroke="#002346" stroke-miterlimit="10"></rect>
  <g>
    <ellipse cx="607.17" cy="206.65" rx="15.13" ry="14.87" transform="translate(319.63 779.95) rotate(-82.16)" fill="#002346" stroke="#002346" stroke-miterlimit="10"></ellipse>
    <ellipse cx="597.25" cy="214.62" rx="11.63" ry="11.44" transform="translate(303.17 777.02) rotate(-82.16)" fill="#242424" stroke="#002346" stroke-miterlimit="10"></ellipse>
    <path d="M559.48,229.14c2.82,3,9.1,7.84,21.71,10.59,0,0-1.74,8.09,7.28,16.67,2.62,2.49,4.33,5.85,4.63,9.5,.49,5.78-2.67,13.77-11.67,20.77,0,0,8.85,3.08,18.23,1.27,0,0,4.83,6.49,14.18,7.3,3.85,.33,7.67-1.54,9.65-4.92,2.64-4.5,4.65-12.94,1.06-28.37,0,0-6.33-53.51-36.21-57.62,0,0-13.47-4.08-26.09,.69-12.72,4.8-23.24,19.15-15.74,35.25l1.9-2.59c2.11-3.4,4.65-4.07,6.03-7.51,.14-.34,.34-.67,.58-.94h0c1.21-1.35,3.22-1.4,4.45-.09Z" fill="#002346" stroke="#002346" stroke-miterlimit="10"></path>
  </g>
  <line x1="678.7" y1="418.15" x2="652.94" y2="372.17" fill="none" stroke="#002346" stroke-linecap="round" stroke-linejoin="round"></line>
  <path d="M795.12,550.76s11.82,13.41,30.82,20.41" fill="none" stroke="#002346" stroke-linecap="round" stroke-linejoin="round"></path>
  <path d="M806.12,547.76s11.82,13.41,30.82,20.41" fill="none" stroke="#002346" stroke-linecap="round" stroke-linejoin="round"></path>
  <path d="M815.12,544.76s10.82,13.41,29.82,20.41" fill="none" stroke="#002346" stroke-linecap="round" stroke-linejoin="round"></path>
  <path d="M566.79,500.08c-1.14-1.39-2.33-2.73-3.57-4l-17-21-12.72,28-11.85,27.35-70.21-21.76,3.06-9.88c.16-.67,4.47-18.87,11.52-42.26,10-33.27,25.59-77,42.63-95.74,0,0,17.72-24.92,57,6.71,0,0,58.92,53,92,104.13,0,0,20.08,1.07,35,12.89,.51,7.92-.05,15.88-1.65,23.65-2.63,11.95-10.63,22.02-21.67,27.29-16.2,7.8-44.88,15.02-75.79-7.92-5.69-4.22-10.83-9.13-15.47-14.48l-11.28-12.98Z" fill="#394260" stroke="#002346" stroke-miterlimit="10"></path>
  <line x1="399.28" y1="374.38" x2="413.74" y2="365.87" fill="none" stroke="#002346" stroke-linecap="round" stroke-linejoin="round"></line>
  <path d="M425.82,360.1l-11.03,17.9c-.88,1.43-.4,3.35,1.11,4.09,1.74,.86,4.78,.92,9.93-2.4,0,0,.46,11.85,9.29,10.16" fill="none" stroke="#002346" stroke-linecap="round" stroke-linejoin="round"></path>
  <path d="M334.02,478.74h36.93s-1.06-13.58-10.86-19.26c3.51-2.59,5.83-6.99,5.83-11.99,0-7.96-5.87-14.42-13.12-14.42s-13.12,6.45-13.12,14.42c0,4.86,2.2,9.15,5.55,11.77-4.23,2.93-11.22,9.3-11.22,19.48Z" fill="#fff" stroke="#002346" stroke-miterlimit="10"></path>
  <g>
    <polyline points="293.43 516.86 301.76 516.86 310.46 544.56 331.67 544.56 340.1 526.37 309.93 526.37" fill="none" stroke="#002346" stroke-linecap="round" stroke-linejoin="round"></polyline>
    <line x1="311.74" y1="532.98" x2="337.04" y2="532.98" fill="none" stroke="#002346" stroke-linecap="round" stroke-linejoin="round"></line>
    <line x1="314.52" y1="537.8" x2="334.18" y2="537.8" fill="none" stroke="#002346" stroke-linecap="round" stroke-linejoin="round"></line>
    <g>
      <circle cx="315.93" cy="549.54" r="3" fill="none" stroke="#002346" stroke-linecap="round" stroke-linejoin="round"></circle>
      <circle cx="326.43" cy="549.54" r="3" fill="none" stroke="#002346" stroke-linecap="round" stroke-linejoin="round"></circle>
    </g>
  </g>
  <rect x="106.44" y="120.67" width="285" height="21" rx="10.5" ry="10.5" fill="none" stroke="#002346" stroke-miterlimit="10"></rect>
  <g>
    <circle cx="372.44" cy="130.06" r="4.95" fill="#fff" stroke="#002346" stroke-miterlimit="10"></circle>
    <line x1="375.94" y1="133.56" x2="379.29" y2="137.23" fill="none" stroke="#002346" stroke-linecap="round" stroke-linejoin="round"></line>
  </g>
  <g>
    <line x1="69.12" y1="125.67" x2="85.28" y2="125.67" fill="none" stroke="#002346" stroke-linecap="round" stroke-linejoin="round"></line>
    <line x1="69.12" y1="136.67" x2="85.28" y2="136.67" fill="none" stroke="#002346" stroke-linecap="round" stroke-linejoin="round"></line>
    <line x1="69.12" y1="131.17" x2="85.28" y2="131.17" fill="none" stroke="#002346" stroke-linecap="round" stroke-linejoin="round"></line>
  </g>
  <g>
    <path d="M421.62,142.02c-.92,0-1.67-.75-1.67-1.67s.75-1.67,1.67-1.67,1.67,.75,1.67,1.67-.75,1.67-1.67,1.67Z" fill="none" stroke="#002346" stroke-linecap="round" stroke-linejoin="round"></path>
    <path d="M427.83,142.02c-.92,0-1.67-.75-1.67-1.67s.75-1.67,1.67-1.67,1.67,.75,1.67,1.67-.75,1.67-1.67,1.67Z" fill="none" stroke="#002346" stroke-linecap="round" stroke-linejoin="round"></path>
    <polyline points="410 122.37 414.47 122.37 419.49 137.49 430.12 137.49 434.94 126.53 419.16 126.53" fill="none" stroke="#002346" stroke-linecap="round" stroke-linejoin="round"></polyline>
    <line x1="420.49" y1="130.55" x2="433.12" y2="130.55" fill="none" stroke="#002346" stroke-linecap="round" stroke-linejoin="round"></line>
    <line x1="421.49" y1="133.91" x2="431.62" y2="133.91" fill="none" stroke="#002346" stroke-linecap="round" stroke-linejoin="round"></line>
    <circle cx="436.23" cy="124.94" r="4.62" fill="#242424" stroke="#002346" stroke-miterlimit="10"></circle>
  </g>
  <g>
    <path d="M109.63,185.1c-3.91,1.9-25.02,13.3-23.39,36.98h10.79v33.62h53.29v-33.62h13.34s-.62-24.09-25.23-37.12c-.35-.19-.79-.04-.97,.32-2.36,4.67-6.85,7.87-11.93,8.39-6.05,.62-12.01-2.66-14.98-8.26-.18-.34-.58-.48-.92-.32Z" fill="#fff" stroke="#002346" stroke-miterlimit="10"></path>
    <path d="M127.71,213.83h0c.46,.92,1.34,1.56,2.36,1.71h0c2.57,.37,3.59,3.53,1.73,5.34h0c-.74,.72-1.07,1.75-.9,2.77h0c.44,2.56-2.24,4.51-4.54,3.3h0c-.91-.48-2-.48-2.91,0h0c-2.3,1.21-4.98-.74-4.54-3.3h0c.17-1.02-.16-2.05-.9-2.77h0c-1.86-1.81-.83-4.96,1.73-5.34h0c1.02-.15,1.9-.79,2.36-1.71h0c1.15-2.33,4.46-2.33,5.61,0Z" fill="#242424" stroke="#002346" stroke-miterlimit="10"></path>
    <path d="M113.71,227.83h0c.46,.92,1.34,1.56,2.36,1.71h0c2.57,.37,3.59,3.53,1.73,5.34h0c-.74,.72-1.07,1.75-.9,2.77h0c.44,2.56-2.24,4.51-4.54,3.3h0c-.91-.48-2-.48-2.91,0h0c-2.3,1.21-4.98-.74-4.54-3.3h0c.17-1.02-.16-2.05-.9-2.77h0c-1.86-1.81-.83-4.96,1.73-5.34h0c1.02-.15,1.9-.79,2.36-1.71h0c1.15-2.33,4.46-2.33,5.61,0Z" fill="#242424" stroke="#002346" stroke-miterlimit="10"></path>
    <path d="M139.71,228.83h0c.46,.92,1.34,1.56,2.36,1.71h0c2.57,.37,3.59,3.53,1.73,5.34h0c-.74,.72-1.07,1.75-.9,2.77h0c.44,2.56-2.24,4.51-4.54,3.3h0c-.91-.48-2-.48-2.91,0h0c-2.3,1.21-4.98-.74-4.54-3.3h0c.17-1.02-.16-2.05-.9-2.77h0c-1.86-1.81-.83-4.96,1.73-5.34h0c1.02-.15,1.9-.79,2.36-1.71h0c1.15-2.33,4.46-2.33,5.61,0Z" fill="#242424" stroke="#002346" stroke-miterlimit="10"></path>
  </g>
  <line x1="97.02" y1="222.08" x2="97.02" y2="213.57" fill="none" stroke="#002346" stroke-linecap="round" stroke-linejoin="round"></line>
  <line x1="150.31" y1="222.08" x2="150.31" y2="213.57" fill="none" stroke="#002346" stroke-linecap="round" stroke-linejoin="round"></line>
  <g>
    <line x1="98.21" y1="279.6" x2="151.58" y2="279.6" fill="none" stroke="#002346" stroke-linecap="round" stroke-linejoin="round"></line>
    <line x1="80.71" y1="294.6" x2="169.08" y2="294.6" fill="none" stroke="#002346" stroke-linecap="round" stroke-linejoin="round"></line>
    <line x1="80.71" y1="319.06" x2="101.51" y2="319.06" fill="none" stroke="#002346" stroke-linecap="round" stroke-linejoin="round"></line>
  </g>
  <g>
    <path d="M400.19,312.18h18.22c4.08,0,7.38,3.3,7.38,7.38h0c0,4.08-3.3,7.38-7.38,7.38h-18.22c-4.08,0-7.38-3.3-7.38-7.38h0c0-4.08,3.3-7.38,7.38-7.38Z" fill="#242424" stroke="#002346" stroke-miterlimit="10"></path>
    <g>
      <line x1="354.92" y1="279.6" x2="408.29" y2="279.6" fill="none" stroke="#002346" stroke-linecap="round" stroke-linejoin="round"></line>
      <line x1="337.42" y1="294.6" x2="425.79" y2="294.6" fill="none" stroke="#002346" stroke-linecap="round" stroke-linejoin="round"></line>
      <line x1="337.42" y1="319.06" x2="358.22" y2="319.06" fill="none" stroke="#002346" stroke-linecap="round" stroke-linejoin="round"></line>
    </g>
  </g>
  <g>
    <line x1="227.11" y1="279.6" x2="280.48" y2="279.6" fill="none" stroke="#002346" stroke-linecap="round" stroke-linejoin="round"></line>
    <line x1="209.61" y1="294.6" x2="297.98" y2="294.6" fill="none" stroke="#002346" stroke-linecap="round" stroke-linejoin="round"></line>
    <line x1="209.61" y1="319.06" x2="230.41" y2="319.06" fill="none" stroke="#002346" stroke-linecap="round" stroke-linejoin="round"></line>
  </g>
  <g>
    <path d="M232.57,189.02l42.45-.35,.37,7.02s14.39,26.06,14.01,53.52h-32.12l-1.84-14.31h-3.3l-1.4,14.31h-32.46s-2.16-27.5,14.29-53.52v-6.67Z" fill="#394260" stroke="#002346" stroke-miterlimit="10"></path>
    <line x1="232.57" y1="195.69" x2="275.39" y2="195.69" fill="none" stroke="#002346" stroke-linecap="round" stroke-linejoin="round"></line>
    <path d="M241.44,195.67s-4.72,15.71-15.57,12.85" fill="none" stroke="#002346" stroke-linecap="round" stroke-linejoin="round"></path>
    <path d="M264.44,195.67s5.4,16.39,16.99,13.2" fill="none" stroke="#002346" stroke-linecap="round" stroke-linejoin="round"></path>
    <line x1="235.69" y1="189.02" x2="235.69" y2="180.63" fill="none" stroke="#002346" stroke-linecap="round" stroke-linejoin="round"></line>
    <line x1="271.77" y1="188.7" x2="271.77" y2="180.63" fill="none" stroke="#002346" stroke-linecap="round" stroke-linejoin="round"></line>
    <line x1="222.02" y1="249.21" x2="222.02" y2="262.76" fill="none" stroke="#002346" stroke-linecap="round" stroke-linejoin="round"></line>
    <line x1="249.22" y1="249.21" x2="246.26" y2="262.76" fill="none" stroke="#002346" stroke-linecap="round" stroke-linejoin="round"></line>
    <line x1="261.28" y1="262.76" x2="258.66" y2="249.28" fill="none" stroke="#002346" stroke-linecap="round" stroke-linejoin="round"></line>
    <line x1="286.48" y1="249.21" x2="286.48" y2="262.76" fill="none" stroke="#002346" stroke-linecap="round" stroke-linejoin="round"></line>
    <line x1="251.29" y1="243.65" x2="230.53" y2="243.65" fill="none" stroke="#002346" stroke-linecap="round" stroke-linejoin="round"></line>
    <line x1="277.29" y1="243.65" x2="256.53" y2="243.65" fill="none" stroke="#002346" stroke-linecap="round" stroke-linejoin="round"></line>
  </g>
  <g>
    <path d="M369.93,237.14l-4.14-47.44c-.19-2.14,1.5-3.98,3.64-3.98h24.2c2.19,0,3.89,1.92,3.63,4.09l-5.72,47.65-21.63-.33Z" fill="#fff" stroke="#002346" stroke-miterlimit="10"></path>
    <path d="M369.93,237.14v10.58c0,1.62,1.31,2.93,2.93,2.93h15.5c1.59,0,2.88-1.26,2.92-2.85l.28-10.33-21.63-.33Z" fill="#242424" stroke="#002346" stroke-miterlimit="10"></path>
    <path d="M378.93,222.57s-9.01-6.54,.55-7.72c0,0,1.23-4.05,4.97-4.1,2.55-.03,4.39,2.36,3.85,4.85-.49,2.23-2.05,5.52-6.03,10.21" fill="none" stroke="#002346" stroke-linecap="round" stroke-linejoin="round"></path>
  </g>
  <path d="M381.7,398.51h-121.24l-20.06-83.24c-.46-1.48,.36-3.05,1.84-3.51,.21-.07,.43-.11,.64-.12l112.89-2c3.5-.24,6.64,2.12,7.4,5.54l18.53,83.33Z" fill="#242424" stroke="#002346" stroke-miterlimit="10"></path>
  <g>
    <rect x="19.94" y="302.17" width="127" height="168" fill="#fff" stroke="#002346" stroke-miterlimit="10"></rect>
    <rect x="19.94" y="302.17" width="127" height="16.5" fill="#394260" stroke="#002346" stroke-miterlimit="10"></rect>
    <g>
      <circle cx="119.01" cy="310.42" r="3.07" fill="#fff" stroke="#002346" stroke-miterlimit="10"></circle>
      <circle cx="127.44" cy="310.42" r="3.07" fill="#fff" stroke="#002346" stroke-miterlimit="10"></circle>
      <circle cx="135.88" cy="310.42" r="3.07" fill="#fff" stroke="#002346" stroke-miterlimit="10"></circle>
    </g>
    <g>
      <g>
        <path d="M43.07,335.55c.05,.05,.08,.12,.08,.19v2.16c0,.07-.03,.14-.08,.19-.05,.05-.11,.08-.19,.08h-3.94c-.07,0-.11,.04-.11,.11v12.34c0,.07-.03,.14-.08,.19-.05,.05-.11,.08-.19,.08h-2.57c-.07,0-.14-.03-.19-.08-.05-.05-.08-.11-.08-.19v-12.34c0-.07-.04-.11-.11-.11h-3.83c-.07,0-.14-.03-.19-.08-.05-.05-.08-.11-.08-.19v-2.16c0-.07,.03-.13,.08-.19,.05-.05,.11-.08,.19-.08h11.09c.07,0,.14,.03,.19,.08Z" fill="#002346"></path>
        <path d="M46.97,350.41c-.87-.47-1.55-1.12-2.04-1.97-.48-.84-.73-1.81-.73-2.92v-4.71c0-1.08,.24-2.05,.73-2.88,.48-.84,1.16-1.49,2.04-1.95,.87-.46,1.88-.69,3.02-.69s2.17,.23,3.05,.69c.87,.46,1.55,1.11,2.03,1.95,.48,.84,.73,1.8,.73,2.88v4.71c0,1.1-.24,2.08-.73,2.93-.48,.85-1.16,1.51-2.03,1.97-.87,.46-1.89,.69-3.05,.69s-2.15-.24-3.02-.71Zm4.98-2.73c.5-.51,.75-1.2,.75-2.05v-4.84c0-.85-.25-1.54-.74-2.06-.49-.52-1.15-.78-1.97-.78s-1.46,.26-1.95,.78c-.49,.52-.74,1.21-.74,2.06v4.84c0,.85,.25,1.53,.74,2.05,.49,.51,1.14,.77,1.95,.77s1.46-.26,1.96-.77Z" fill="#002346"></path>
        <path d="M68.81,335.55c.05,.05,.08,.12,.08,.19v2.16c0,.07-.03,.14-.08,.19-.05,.05-.11,.08-.19,.08h-3.94c-.07,0-.11,.04-.11,.11v12.34c0,.07-.03,.14-.08,.19-.05,.05-.11,.08-.19,.08h-2.57c-.07,0-.14-.03-.19-.08-.05-.05-.08-.11-.08-.19v-12.34c0-.07-.04-.11-.11-.11h-3.83c-.07,0-.14-.03-.19-.08-.05-.05-.08-.11-.08-.19v-2.16c0-.07,.03-.13,.08-.19,.05-.05,.11-.08,.19-.08h11.09c.07,0,.14,.03,.19,.08Z" fill="#002346"></path>
        <path d="M78.97,350.65l-.66-2.16c-.03-.06-.07-.09-.11-.09h-5.41s-.08,.03-.11,.09l-.64,2.16c-.04,.15-.14,.22-.29,.22h-2.79c-.09,0-.15-.03-.2-.08-.04-.05-.05-.13-.02-.23l4.75-14.87c.04-.15,.14-.22,.29-.22h3.45c.15,0,.24,.07,.29,.22l4.75,14.87s.02,.07,.02,.11c0,.13-.08,.2-.24,.2h-2.79c-.15,0-.24-.07-.29-.22Zm-5.41-4.64h3.87c.09,0,.12-.04,.09-.13l-1.98-6.53c-.01-.06-.04-.08-.07-.08-.03,0-.05,.03-.07,.08l-1.94,6.53c-.02,.09,.01,.13,.09,.13Z" fill="#002346"></path>
        <path d="M84.3,350.79c-.05-.05-.08-.11-.08-.19v-14.87c0-.07,.03-.13,.08-.19,.05-.05,.11-.08,.19-.08h2.57c.07,0,.14,.03,.19,.08,.05,.05,.08,.12,.08,.19v12.36c0,.07,.04,.11,.11,.11h7.19c.07,0,.14,.03,.19,.08,.05,.05,.08,.11,.08,.19v2.13c0,.07-.03,.14-.08,.19-.05,.05-.11,.08-.19,.08h-10.14c-.07,0-.14-.03-.19-.08Z" fill="#002346"></path>
      </g>
      <rect x="31.97" y="364.17" width="36" height="7" fill="#e5e6e7" stroke="#002346" stroke-miterlimit="10"></rect>
      <rect x="31.97" y="377.67" width="52" height="7" fill="#e5e6e7" stroke="#002346" stroke-miterlimit="10"></rect>
      <rect x="32.47" y="391.67" width="61" height="7" fill="#e5e6e7" stroke="#002346" stroke-miterlimit="10"></rect>
      <rect x="32.47" y="411.67" width="61" height="7" fill="#e5e6e7" stroke="#002346" stroke-miterlimit="10"></rect>
      <rect x="108.97" y="391.67" width="27" height="7" fill="#e5e6e7" stroke="#002346" stroke-miterlimit="10"></rect>
      <rect x="31.47" y="436.67" width="104" height="19" rx="9.5" ry="9.5" fill="#242424" stroke="#002346" stroke-miterlimit="10"></rect>
      <g>
        <path d="M56.21,450.87c-.53-.27-.93-.65-1.21-1.14-.29-.49-.43-1.05-.43-1.7v-3.08c0-.64,.14-1.21,.43-1.7,.28-.49,.69-.87,1.21-1.13s1.13-.4,1.83-.4,1.29,.13,1.81,.38,.93,.62,1.21,1.08,.43,1.01,.43,1.62c0,.08-.05,.13-.16,.15l-1.56,.09h-.03c-.09,0-.13-.05-.13-.15,0-.47-.15-.85-.43-1.13-.29-.28-.67-.43-1.14-.43s-.87,.14-1.15,.43c-.29,.29-.43,.66-.43,1.13v3.22c0,.46,.14,.84,.43,1.12,.29,.29,.67,.43,1.15,.43s.85-.14,1.14-.43c.29-.29,.43-.66,.43-1.12,0-.1,.05-.15,.16-.15l1.56,.07s.08,.01,.11,.04c.03,.03,.05,.06,.05,.09,0,.61-.15,1.16-.43,1.63s-.69,.84-1.21,1.09-1.12,.39-1.81,.39-1.3-.14-1.83-.41Z" fill="#002346"></path>
        <path d="M67.88,441.87s.07-.05,.11-.05h1.56s.08,.02,.11,.05,.05,.07,.05,.11v9.03s-.02,.08-.05,.11-.07,.05-.11,.05h-1.56s-.08-.02-.11-.05-.05-.07-.05-.11v-3.69s-.02-.07-.07-.07h-2.95s-.07,.02-.07,.07v3.69s-.02,.08-.05,.11-.07,.05-.11,.05h-1.56s-.08-.02-.11-.05c-.03-.03-.05-.07-.05-.11v-9.03s.02-.08,.05-.11c.03-.03,.07-.05,.11-.05h1.56s.08,.02,.11,.05,.05,.07,.05,.11v3.59s.02,.07,.07,.07h2.95s.07-.02,.07-.07v-3.59s.02-.08,.05-.11Z" fill="#002346"></path>
        <path d="M77.69,443.39s-.07,.05-.11,.05h-4.38s-.07,.02-.07,.07v2.07s.02,.07,.07,.07h2.87s.08,.02,.11,.05,.05,.07,.05,.11v1.29s-.02,.08-.05,.11-.07,.05-.11,.05h-2.87s-.07,.02-.07,.07v2.16s.02,.07,.07,.07h4.38s.08,.02,.11,.05c.03,.03,.05,.07,.05,.11v1.29s-.02,.08-.05,.11c-.03,.03-.07,.05-.11,.05h-6.17s-.08-.02-.11-.05c-.03-.03-.05-.07-.05-.11v-9.03s.02-.08,.05-.11c.03-.03,.07-.05,.11-.05h6.17s.08,.02,.11,.05c.03,.03,.05,.07,.05,.11v1.29s-.02,.08-.05,.11Z" fill="#002346"></path>
        <path d="M80.5,450.87c-.53-.27-.93-.65-1.21-1.14-.29-.49-.43-1.05-.43-1.7v-3.08c0-.64,.14-1.21,.43-1.7,.28-.49,.69-.87,1.21-1.13s1.13-.4,1.83-.4,1.29,.13,1.81,.38,.93,.62,1.21,1.08,.43,1.01,.43,1.62c0,.08-.05,.13-.16,.15l-1.56,.09h-.03c-.09,0-.13-.05-.13-.15,0-.47-.15-.85-.43-1.13-.29-.28-.67-.43-1.14-.43s-.87,.14-1.15,.43c-.29,.29-.43,.66-.43,1.13v3.22c0,.46,.14,.84,.43,1.12,.29,.29,.67,.43,1.15,.43s.85-.14,1.14-.43c.29-.29,.43-.66,.43-1.12,0-.1,.05-.15,.16-.15l1.56,.07s.08,.01,.11,.04c.03,.03,.05,.06,.05,.09,0,.61-.15,1.16-.43,1.63s-.69,.84-1.21,1.09-1.12,.39-1.81,.39-1.3-.14-1.83-.41Z" fill="#002346"></path>
        <path d="M87.21,451.12s-.05-.07-.05-.11v-9.03s.02-.08,.05-.11c.03-.03,.07-.05,.11-.05h1.56s.08,.02,.11,.05,.05,.07,.05,.11v3.74s0,.04,.03,.05c.02,0,.04,0,.05-.02l3.08-3.83c.05-.06,.12-.09,.2-.09h1.76c.07,0,.12,.02,.13,.06,.02,.04,0,.09-.03,.14l-2.98,3.81s-.03,.07-.01,.09l3.15,5.06c.02,.05,.03,.09,.03,.09,0,.06-.04,.09-.13,.09h-1.76c-.09,0-.15-.04-.19-.11l-2.38-3.84s-.02-.03-.04-.03-.04,0-.05,.03l-.84,1.05s-.03,.06-.03,.08v2.66s-.02,.08-.05,.11-.07,.05-.11,.05h-1.56s-.08-.02-.11-.05Z" fill="#002346"></path>
        <path d="M96.63,450.89c-.53-.28-.94-.68-1.24-1.19-.29-.51-.44-1.1-.44-1.77v-2.86c0-.66,.15-1.24,.44-1.75,.29-.51,.71-.9,1.24-1.18,.53-.28,1.14-.42,1.84-.42s1.32,.14,1.85,.42c.53,.28,.94,.67,1.23,1.18,.29,.51,.44,1.09,.44,1.75v2.86c0,.67-.15,1.26-.44,1.78-.29,.52-.71,.91-1.23,1.2-.53,.28-1.15,.42-1.85,.42s-1.31-.14-1.84-.43Zm3.02-1.66c.3-.31,.45-.73,.45-1.24v-2.94c0-.52-.15-.93-.45-1.25-.3-.32-.7-.47-1.19-.47s-.88,.16-1.18,.47c-.3,.32-.45,.73-.45,1.25v2.94c0,.52,.15,.93,.45,1.24,.3,.31,.69,.47,1.18,.47s.89-.16,1.19-.47Z" fill="#002346"></path>
        <path d="M105.01,450.87c-.52-.27-.93-.64-1.21-1.13-.29-.48-.43-1.04-.43-1.68v-6.09s.02-.08,.05-.11,.07-.05,.11-.05h1.56s.08,.02,.11,.05c.03,.03,.05,.07,.05,.11v6.1c0,.47,.15,.85,.43,1.14s.67,.43,1.14,.43,.85-.14,1.14-.43c.29-.29,.43-.67,.43-1.14v-6.1s.02-.08,.05-.11,.07-.05,.11-.05h1.56s.08,.02,.11,.05,.05,.07,.05,.11v6.09c0,.63-.15,1.19-.43,1.68-.29,.49-.69,.86-1.21,1.13-.52,.27-1.12,.4-1.81,.4s-1.29-.13-1.81-.4Z" fill="#002346"></path>
        <path d="M118.39,441.87s.05,.07,.05,.11v1.31s-.02,.08-.05,.11c-.03,.03-.07,.05-.11,.05h-2.39s-.07,.02-.07,.07v7.49s-.02,.08-.05,.11c-.03,.03-.07,.05-.11,.05h-1.56s-.08-.02-.11-.05c-.03-.03-.05-.07-.05-.11v-7.49s-.02-.07-.07-.07h-2.32s-.08-.02-.11-.05-.05-.07-.05-.11v-1.31s.02-.08,.05-.11,.07-.05,.11-.05h6.73s.08,.02,.11,.05Z" fill="#002346"></path>
      </g>
    </g>
  </g>
  <line x1="546.22" y1="475.08" x2="563.34" y2="433.07" fill="none" stroke="#002346" stroke-linecap="round" stroke-linejoin="round"></line>
  <ellipse cx="591.16" cy="254.33" rx="6.22" ry="7.52" fill="#f1b2c0" stroke="#002346" stroke-miterlimit="10"></ellipse>
  <circle cx="590.6" cy="261.85" r="2.95" fill="#242424" stroke="#002346" stroke-miterlimit="10"></circle>
</svg>
